<?xml version="1.0" encoding="UTF-8"?>
<!DOCTYPE svg PUBLIC "-//W3C//DTD SVG 1.1//EN" "http://www.w3.org/Graphics/SVG/1.1/DTD/svg11.dtd">
<svg xmlns="http://www.w3.org/2000/svg" version="1.1" width="800px" height="800px" style="shape-rendering:geometricPrecision; text-rendering:geometricPrecision; image-rendering:optimizeQuality; fill-rule:evenodd; clip-rule:evenodd" xmlns:xlink="http://www.w3.org/1999/xlink">
<g><path style="opacity:0.995" fill="#fefffe" d="M 286.5,49.5 C 411.834,49.3333 537.167,49.5 662.5,50C 699.269,56.1009 725.769,75.9343 742,109.5C 745.429,118.217 747.763,127.217 749,136.5C 749.667,261.833 749.667,387.167 749,512.5C 742.899,549.269 723.066,575.769 689.5,592C 680.783,595.429 671.783,597.763 662.5,599C 537.167,599.667 411.833,599.667 286.5,599C 249.731,592.899 223.231,573.066 207,539.5C 203.571,530.783 201.237,521.783 200,512.5C 199.333,387.167 199.333,261.833 200,136.5C 206.101,99.7311 225.934,73.2311 259.5,57C 268.413,53.6918 277.413,51.1918 286.5,49.5 Z M 299.5,99.5 C 416.167,99.3333 532.834,99.5 649.5,100C 679.333,103.167 695.833,119.667 699,149.5C 699.667,266.167 699.667,382.833 699,499.5C 695.833,529.333 679.333,545.833 649.5,549C 532.833,549.667 416.167,549.667 299.5,549C 269.667,545.833 253.167,529.333 250,499.5C 249.333,382.833 249.333,266.167 250,149.5C 253.344,119.656 269.844,102.99 299.5,99.5 Z"/></g>
<g><path style="opacity:0.993" fill="#fefffe" d="M 136.5,199.5 C 140.833,199.5 145.167,199.5 149.5,199.5C 149.5,216.5 149.5,233.5 149.5,250.5C 124.018,251.808 107.851,264.808 101,289.5C 100.667,292.833 100.333,296.167 100,299.5C 99.3333,416.167 99.3333,532.833 100,649.5C 103.167,679.333 119.667,695.833 149.5,699C 266.167,699.667 382.833,699.667 499.5,699C 524.936,697.232 541.103,684.065 548,659.5C 548.498,656.183 548.665,652.85 548.5,649.5C 565.5,649.5 582.5,649.5 599.5,649.5C 598.681,687.798 582.014,716.965 549.5,737C 537.887,743.204 525.553,747.204 512.5,749C 387.167,749.667 261.833,749.667 136.5,749C 103.926,744.083 79.0927,727.583 62,699.5C 55.7956,687.887 51.7956,675.553 50,662.5C 49.3333,537.167 49.3333,411.833 50,286.5C 56.1009,249.731 75.9343,223.231 109.5,207C 118.413,203.692 127.413,201.192 136.5,199.5 Z"/></g>
</svg>
