<?xml version="1.0" encoding="UTF-8"?>
<!DOCTYPE svg PUBLIC "-//W3C//DTD SVG 1.1//EN" "http://www.w3.org/Graphics/SVG/1.1/DTD/svg11.dtd">
<svg xmlns="http://www.w3.org/2000/svg" version="1.1" width="800px" height="800px" style="shape-rendering:geometricPrecision; text-rendering:geometricPrecision; image-rendering:optimizeQuality; fill-rule:evenodd; clip-rule:evenodd" xmlns:xlink="http://www.w3.org/1999/xlink">
<g><path style="opacity:0.985" fill="#fefffe" d="M 382.5,65.5 C 497.778,63.402 591.612,106.735 664,195.5C 725.545,278.87 745.878,371.536 725,473.5C 699.149,577.066 638.649,652.899 543.5,701C 436.453,748.421 331.786,743.754 229.5,687C 129.983,624.534 75.4835,534.367 66,416.5C 63.4144,301.196 106.581,207.363 195.5,135C 250.843,93.3414 313.176,70.1747 382.5,65.5 Z M 382.5,133.5 C 489.701,131.171 571.868,174.838 629,264.5C 669.636,337.468 676.303,413.468 649,492.5C 612.9,581.594 548.067,637.427 454.5,660C 356.263,677.251 272.43,650.418 203,579.5C 134.464,498.659 116.798,407.659 150,306.5C 186.1,217.406 250.933,161.573 344.5,139C 357.244,136.66 369.911,134.827 382.5,133.5 Z"/></g>
<g><path style="opacity:0.984" fill="#fefffe" d="M 524.5,279.5 C 540.465,294.965 556.299,310.632 572,326.5C 572.667,327.167 572.667,327.833 572,328.5C 503.719,397.403 435.219,466.07 366.5,534.5C 324.833,493.5 283.5,452.167 242.5,410.5C 257.833,394.5 273.5,378.833 289.5,363.5C 315.153,388.653 340.653,413.986 366,439.5C 419.396,386.604 472.23,333.271 524.5,279.5 Z"/></g>
</svg>
