<?xml version="1.0" encoding="UTF-8"?>
<!DOCTYPE svg PUBLIC "-//W3C//DTD SVG 1.1//EN" "http://www.w3.org/Graphics/SVG/1.1/DTD/svg11.dtd">
<svg xmlns="http://www.w3.org/2000/svg" version="1.1" width="800px" height="800px" style="shape-rendering:geometricPrecision; text-rendering:geometricPrecision; image-rendering:optimizeQuality; fill-rule:evenodd; clip-rule:evenodd" xmlns:xlink="http://www.w3.org/1999/xlink">
<g><path style="opacity:0.995" fill="#fefffe" d="M 799.5,84.5 C 799.5,294.5 799.5,504.5 799.5,714.5C 793.946,741.723 778.613,761.556 753.5,774C 746.384,776.817 739.05,778.817 731.5,780C 510.167,780.667 288.833,780.667 67.5,780C 37.5792,775.29 16.4126,759.123 4,731.5C 2.16036,726.126 0.660356,720.793 -0.5,715.5C -0.5,504.833 -0.5,294.167 -0.5,83.5C 5.34234,56.7003 20.6757,37.2003 45.5,25C 52.6162,22.1832 59.9495,20.1832 67.5,19C 288.833,18.3333 510.167,18.3333 731.5,19C 761.421,23.7099 782.587,39.8765 795,67.5C 796.834,73.2113 798.334,78.8779 799.5,84.5 Z M 111.5,95.5 C 303.5,95.3333 495.5,95.5 687.5,96C 706.498,100.827 716.998,112.993 719,132.5C 719.667,310.5 719.667,488.5 719,666.5C 716.998,686.007 706.498,698.173 687.5,703C 495.5,703.667 303.5,703.667 111.5,703C 92.5023,698.173 82.0023,686.007 80,666.5C 79.3333,488.5 79.3333,310.5 80,132.5C 82.1092,112.911 92.6092,100.578 111.5,95.5 Z"/></g>
<g><path style="opacity:0.992" fill="#fefffe" d="M 394.5,208.5 C 416.701,207.677 431.534,217.677 439,238.5C 439.333,309.5 439.667,380.5 440,451.5C 440.932,461.098 446.098,466.931 455.5,469C 459.594,469.767 463.594,469.434 467.5,468C 484.795,453.707 501.795,439.04 518.5,424C 540.352,413.452 559.186,417.285 575,435.5C 582.296,449.514 582.296,463.514 575,477.5C 535.167,514 495.333,550.5 455.5,587C 425.014,610.563 392.348,613.897 357.5,597C 352.833,593.667 348.167,590.333 343.5,587C 303.667,550.5 263.833,514 224,477.5C 212.393,452.738 218.56,433.905 242.5,421C 255.573,416.965 268.24,417.965 280.5,424C 297.205,439.04 314.205,453.707 331.5,468C 340.494,470.959 348.327,469.126 355,462.5C 357.315,459.223 358.649,455.556 359,451.5C 359.333,380.5 359.667,309.5 360,238.5C 365.851,221.804 377.351,211.804 394.5,208.5 Z"/></g>
</svg>
